<?xml version="1.0" encoding="UTF-8"?>
<svg version="1.1" xmlns="http://www.w3.org/2000/svg" width="960" height="960">
<path d="M0 0 C316.8 0 633.6 0 960 0 C960 316.8 960 633.6 960 960 C643.2 960 326.4 960 0 960 C0 643.2 0 326.4 0 0 Z " fill="#FEFEFE" transform="translate(0,0)"/>
<path d="M0 0 C36.96 0 73.92 0 112 0 C113.6382629 4.09565724 114.54764638 7.28776596 115.3125 11.5625 C115.43439697 12.2337793 115.55629395 12.90505859 115.68188477 13.59667969 C116.12774675 16.06333365 116.56435991 18.53152007 117 21 C117.59694078 24.3727675 118.19444806 27.74543239 118.79296875 31.11791992 C119.22388835 33.54624978 119.65356893 35.97479982 120.08203125 38.40356445 C121.52107891 46.50311339 123.06269986 54.5738978 124.83178711 62.60839844 C125.86688142 67.50744969 126.15300412 71.99053174 126 77 C126.66 77 127.32 77 128 77 C128.10022461 77.62753174 128.20044922 78.25506348 128.30371094 78.90161133 C130.16731637 90.50054784 132.12643805 102.04384001 134.63525391 113.52197266 C135.84222933 119.08994402 136.76142912 124.66463424 137.57421875 130.3046875 C138.02149128 133.13604574 138.68776695 135.87550159 139.42578125 138.64453125 C140.26231083 142.07600975 140.94973388 145.53405685 141.625 149 C141.760271 149.66491455 141.89554199 150.3298291 142.03491211 151.01489258 C142.93868179 155.74673502 143.11827746 160.18288157 143 165 C143.66 165 144.32 165 145 165 C145.15819214 165.96486328 145.15819214 165.96486328 145.31958008 166.94921875 C149.23041102 190.9223162 149.23041102 190.9223162 154.25390625 214.6796875 C155.2198946 218.97858854 156.01362057 223.30268187 156.8046875 227.63671875 C157.78161724 232.94436797 158.87237399 238.22247592 160 243.5 C162.50746341 255.27996559 164.75128642 267.07465871 166.5390625 278.98828125 C167.57948351 285.7862863 168.85680503 292.49424475 170.4375 299.1875 C171.72450614 304.65084108 172.80161024 310.13139137 173.80664062 315.65307617 C174.60728038 320.01194379 175.49112078 324.34469668 176.43237305 328.67529297 C178.64285972 338.84844622 180.41017664 349.06746544 182.0703125 359.34375 C182.37872102 361.22941053 182.68862153 363.11482763 183 365 C183.24314941 366.47919922 183.24314941 366.47919922 183.49121094 367.98828125 C183.6565332 368.95121094 183.82185547 369.91414063 183.9921875 370.90625 C184.13769043 371.76541016 184.28319336 372.62457031 184.43310547 373.50976562 C184.93229647 376.02149951 184.93229647 376.02149951 185.97314453 378.36132812 C187.24970221 381.64165039 187.8210472 384.84712973 188.4375 388.3125 C188.69647629 389.74611874 188.95559484 391.17971179 189.21484375 392.61328125 C189.34487793 393.34240723 189.47491211 394.0715332 189.60888672 394.82275391 C190.21897663 398.21899727 190.86022737 401.60924693 191.5 405 C191.75016728 406.33330196 192.00016684 407.66663539 192.25 409 C192.37375 409.66 192.4975 410.32 192.625 411 C193.75 417 193.75 417 194.12522888 419.00134277 C194.37440694 420.33021126 194.62364368 421.65906874 194.87294006 422.98791504 C195.51100562 426.38947115 196.14794585 429.79123201 196.78295898 433.19335938 C198.17313341 440.63620296 199.57874822 448.07513512 201.0625 455.5 C201.22298828 456.3146875 201.38347656 457.129375 201.54882812 457.96875 C202.30054711 461.73640177 203.10807347 465.44986093 204.12109375 469.15625 C205 473 205 473 205 480 C175.3 480 145.6 480 115 480 C113.37529312 475.9382328 112.52134507 472.92137162 111.8515625 468.6875 C111.55354736 466.84212646 111.55354736 466.84212646 111.24951172 464.95947266 C111.14765564 464.31326965 111.04579956 463.66706665 110.94085693 463.00128174 C110.40573698 459.61074103 109.85101092 456.22341385 109.296875 452.8359375 C109.18693207 452.16178802 109.07698914 451.48763855 108.9637146 450.7930603 C107.61739101 442.58709374 106.03937765 434.42928735 104.44091797 426.26953125 C103.75233708 422.72520794 103.09593691 419.17502188 102.4375 415.625 C101.49393517 410.57565309 100.51447352 405.5355732 99.5 400.5 C98.99949074 398.00010191 98.49950738 395.50009847 98 393 C97.86029785 392.30777344 97.7205957 391.61554688 97.57666016 390.90234375 C97.14844978 388.76951736 96.72957537 386.63502867 96.3125 384.5 C95.93544922 382.59734375 95.93544922 382.59734375 95.55078125 380.65625 C95 377 95 377 95 370 C51.935 370.495 51.935 370.495 8 371 C6.35 380.24 4.7 389.48 3 399 C-36.27 399 -75.54 399 -116 399 C-116 356.1 -116 313.2 -116 269 C-79.37 269 -42.74 269 -5 269 C-5 243.59 -5 218.18 -5 192 C-41.63 192 -78.26 192 -116 192 C-116 155.37 -116 118.74 -116 81 C-77.72 81 -39.44 81 0 81 C0 54.27 0 27.54 0 0 Z " fill="#020202" transform="translate(445,195)"/>
<path d="M0 0 C0.66 0 1.32 0 2 0 C4.33059895 8.35508411 5.67953378 16.499522 6.5 25.125 C7.39632334 33.87945125 8.47276747 42.53021435 10.015625 51.19335938 C10.68858901 55.0056289 11.21530423 58.76452541 11.5 62.625 C11.87861107 67.62266617 12.79681885 72.45292833 13.76904297 77.36645508 C15.10262389 84.23560916 16.06468774 91.14797732 16.99755859 98.08154297 C17.11437988 98.9376416 17.23120117 99.79374023 17.3515625 100.67578125 C17.45291504 101.43802002 17.55426758 102.20025879 17.65869141 102.9855957 C17.98036314 105.19659543 17.98036314 105.19659543 19 108 C19.18981711 109.54298431 19.3403801 111.09099926 19.46484375 112.640625 C19.58182617 113.99994141 19.58182617 113.99994141 19.70117188 115.38671875 C19.85741675 117.27973519 20.01110673 119.17296443 20.16210938 121.06640625 C20.61679805 126.29347774 21.43344022 130.96802009 23 136 C25.6157881 147.96504032 26.61081021 159.77407254 27 172 C27.66 172 28.32 172 29 172 C31.03940167 184.23641 32.01074488 196.63431105 33 209 C10.89 209 -11.22 209 -34 209 C-32.88888889 196.77777778 -32.88888889 196.77777778 -31.5 190.5 C-30.56588174 186.06293828 -29.81015989 181.77316502 -29.5 177.25 C-29.23964761 173.6779652 -28.66640356 170.54982201 -27.625 167.125 C-26.04622202 161.77851031 -25.29061574 156.44889039 -24.5625 150.9375 C-23.67158283 144.21884567 -22.57590392 137.65447259 -21 131.0625 C-18.56016263 120.8235842 -17.27573128 110.43806858 -16 100 C-15.34 100 -14.68 100 -14 100 C-13.96189209 99.06325439 -13.92378418 98.12650879 -13.88452148 97.16137695 C-13.33935325 86.34743832 -11.87659974 75.85414626 -10.0625 65.1875 C-9.79420743 63.57108196 -9.52662699 61.95454556 -9.25976562 60.33789062 C-8.21005965 54.01046593 -7.14198288 47.69067889 -5.9375 41.390625 C-4.6041798 34.16357286 -3.80907608 26.85647654 -2.9375 19.5625 C-2.67760786 17.39480171 -2.41671304 15.22724685 -2.15272522 13.06004333 C-1.91559003 11.11268492 -1.68217218 9.16487489 -1.44897461 7.21704102 C-1.1021123 4.73166599 -0.68377853 2.40808959 0 0 Z " fill="#FAFAFA" transform="translate(497,284)"/>
<path d="M0 0 C3.3 0 6.6 0 10 0 C10.47050781 1.14597656 10.94101562 2.29195312 11.42578125 3.47265625 C12.05466017 5.0026154 12.68356795 6.53256269 13.3125 8.0625 C13.62123047 8.81466797 13.92996094 9.56683594 14.24804688 10.34179688 C14.55419922 11.08623047 14.86035156 11.83066406 15.17578125 12.59765625 C15.45333252 13.27320557 15.73088379 13.94875488 16.0168457 14.64477539 C17.32246844 17.7724989 18.66489219 20.88474845 20 24 C20.33 16.08 20.66 8.16 21 0 C23.97 0 26.94 0 30 0 C30 16.17 30 32.34 30 49 C26.7 49 23.4 49 20 49 C19.73445313 48.19175781 19.46890625 47.38351562 19.1953125 46.55078125 C18.84210938 45.48214844 18.48890625 44.41351562 18.125 43.3125 C17.77695312 42.25675781 17.42890625 41.20101562 17.0703125 40.11328125 C16.39588449 38.15153262 15.6679901 36.20661083 14.8671875 34.29296875 C14 32 14 32 14 29 C13.34 29 12.68 29 12 29 C11.67 26.36 11.34 23.72 11 21 C10.34 21 9.68 21 9 21 C9 30.24 9 39.48 9 49 C6.03 49 3.06 49 0 49 C0 32.83 0 16.66 0 0 Z " fill="#1E1E1E" transform="translate(297,715)"/>
<path d="M0 0 C3.3 0 6.6 0 10 0 C10 6.6 10 13.2 10 20 C13.3 20 16.6 20 20 20 C20 13.4 20 6.8 20 0 C22.97 0 25.94 0 29 0 C29 16.17 29 32.34 29 49 C26.03 49 23.06 49 20 49 C20 42.4 20 35.8 20 29 C16.7 29 13.4 29 10 29 C10 35.6 10 42.2 10 49 C6.7 49 3.4 49 0 49 C0 32.83 0 16.66 0 0 Z " fill="#0B0B0B" transform="translate(443,715)"/>
<path d="M0 0 C4.29 0 8.58 0 13 0 C13.19335938 1.21816406 13.38671875 2.43632813 13.5859375 3.69140625 C13.8487383 5.31513979 14.1117715 6.93883574 14.375 8.5625 C14.50132812 9.36236328 14.62765625 10.16222656 14.7578125 10.98632812 C15.54056432 15.78068301 16.63209654 20.33140641 18 25 C18.38830887 27.0354491 18.74440087 29.07740391 19.0625 31.125 C19.51050873 33.97596461 19.95884314 36.80493965 20.5546875 39.62890625 C21.14467089 42.77030904 21.06250236 45.81237946 21 49 C14.84765625 49.09765625 14.84765625 49.09765625 13 49 C10.73293933 46.73293933 11.25590776 40.88810189 11 38 C7.7 38 4.4 38 1 38 C1.020625 39.0725 1.04125 40.145 1.0625 41.25 C1 45 1 45 0 49 C-3.3 49 -6.6 49 -10 49 C-9.24536182 40.57320697 -9.24536182 40.57320697 -8.08203125 37.85546875 C-6.72054625 34.26252457 -5.99913259 30.61509545 -5.2734375 26.85546875 C-5.04462387 25.7007885 -5.04462387 25.7007885 -4.81118774 24.52278137 C-4.32791339 22.07855761 -3.85136459 19.63307881 -3.375 17.1875 C-3.04731903 15.52400101 -2.71919877 13.8605885 -2.390625 12.19726562 C-1.58866038 8.13249395 -0.79272245 4.06658377 0 0 Z " fill="#131313" transform="translate(555,715)"/>
<path d="M0 0 C-0.33 2.64 -0.66 5.28 -1 8 C-1.74765625 8.01417969 -2.4953125 8.02835938 -3.265625 8.04296875 C-9.48605746 8.20011824 -9.48605746 8.20011824 -14.625 11.3125 C-18.34962464 18.59244817 -18.24869201 28.60824106 -16 36.375 C-15.67 37.24125 -15.34 38.1075 -15 39 C-14.34 39 -13.68 39 -13 39 C-13 39.66 -13 40.32 -13 41 C-11.35 41 -9.7 41 -8 41 C-8 37.04 -8 33.08 -8 29 C-9.32 29 -10.64 29 -12 29 C-12 26.36 -12 23.72 -12 21 C-7.71 21 -3.42 21 1 21 C1 29.91 1 38.82 1 48 C-3.95303437 50.47651719 -11.58859095 49.865269 -17 49 C-22.36589579 46.58923522 -25.06809404 42.46360662 -27.5 37.25 C-30.83000207 27.39378853 -29.39771905 17.33593988 -25 8 C-21.97384498 4.13682338 -18.85240587 1.61746862 -14.1875 0.0625 C-9.4561833 -0.03027092 -4.73185324 -0.07577701 0 0 Z " fill="#141414" transform="translate(361,715)"/>
<path d="M0 0 C7.26 0 14.52 0 22 0 C22 2.64 22 5.28 22 8 C21 9 21 9 18.49609375 9.09765625 C16.98208984 9.08025391 16.98208984 9.08025391 15.4375 9.0625 C14.42558594 9.05347656 13.41367187 9.04445313 12.37109375 9.03515625 C11.19740234 9.01775391 11.19740234 9.01775391 10 9 C10 12.3 10 15.6 10 19 C13.63 19 17.26 19 21 19 C21 21.97 21 24.94 21 28 C17.37 28 13.74 28 10 28 C10 31.96 10 35.92 10 40 C13.96 40 17.92 40 22 40 C22 42.97 22 45.94 22 49 C14.74 49 7.48 49 0 49 C0 32.83 0 16.66 0 0 Z " fill="#151515" transform="translate(269,715)"/>
<path d="M0 0 C7.26 0 14.52 0 22 0 C22 2.64 22 5.28 22 8 C21 9 21 9 18.49609375 9.09765625 C16.98208984 9.08025391 16.98208984 9.08025391 15.4375 9.0625 C14.42558594 9.05347656 13.41367187 9.04445313 12.37109375 9.03515625 C11.19740234 9.01775391 11.19740234 9.01775391 10 9 C10 12.3 10 15.6 10 19 C13.63 19 17.26 19 21 19 C21 21.97 21 24.94 21 28 C17.37 28.33 13.74 28.66 10 29 C10 32.63 10 36.26 10 40 C13.96 40 17.92 40 22 40 C22 42.97 22 45.94 22 49 C14.74 49 7.48 49 0 49 C0 32.83 0 16.66 0 0 Z " fill="#121212" transform="translate(639,715)"/>
<path d="M0 0 C-0.33 2.64 -0.66 5.28 -1 8 C-1.71027344 8.06058594 -2.42054688 8.12117187 -3.15234375 8.18359375 C-4.07144531 8.26738281 -4.99054687 8.35117187 -5.9375 8.4375 C-6.85402344 8.51871094 -7.77054688 8.59992187 -8.71484375 8.68359375 C-10.96159732 8.76044976 -10.96159732 8.76044976 -12 10 C-12.44363257 12.38871329 -12.44363257 12.38871329 -12 15 C-10.15435875 17.01590394 -10.15435875 17.01590394 -7.6875 18.625 C-0.3947924 23.8156228 -0.3947924 23.8156228 1 28 C2.05358512 38.56595359 2.05358512 38.56595359 -1.25 43.0625 C-2.1575 43.701875 -3.065 44.34125 -4 45 C-4.58136719 45.52980469 -5.16273438 46.05960938 -5.76171875 46.60546875 C-8.80105235 48.49908497 -11.01033347 48.3308229 -14.5625 48.25 C-15.69816406 48.23453125 -16.83382812 48.2190625 -18.00390625 48.203125 C-21 48 -21 48 -24 47 C-23.67 44.36 -23.34 41.72 -23 39 C-18.71 39.33 -14.42 39.66 -10 40 C-8.88129335 35.50183271 -8.88129335 35.50183271 -9 31 C-10.79432128 28.96179039 -12.61461777 27.70827468 -14.921875 26.2890625 C-16.95516579 25.02781069 -18.45817828 23.82481431 -20 22 C-20 21.34 -20 20.68 -20 20 C-20.66 20 -21.32 20 -22 20 C-24.61895048 15.22426677 -23.83119431 11.15565119 -23 6 C-22.34 6 -21.68 6 -21 6 C-20.9071875 5.37609375 -20.814375 4.7521875 -20.71875 4.109375 C-20 2 -20 2 -16.5 0.25 C-11.00413237 -1.57205341 -5.50340024 -1.83446675 0 0 Z " fill="#0E0E0E" transform="translate(632,716)"/>
<path d="M0 0 C0 2.64 0 5.28 0 8 C-3.63 8 -7.26 8 -11 8 C-11.020625 9.258125 -11.04125 10.51625 -11.0625 11.8125 C-11.07410156 12.52019531 -11.08570313 13.22789062 -11.09765625 13.95703125 C-11.08263217 16.20305461 -11.08263217 16.20305461 -10 19 C-9.0925 19.268125 -8.185 19.53625 -7.25 19.8125 C-2.92361458 21.39329467 -1.63944791 23.2737206 1 27 C1 27.66 1 28.32 1 29 C1.66 29 2.32 29 3 29 C3.57526355 36.24832072 2.64233949 41.23111946 -2 47 C-7.131656 50.12905854 -14.13518312 49.37752564 -20 49 C-20.66 48.67 -21.32 48.34 -22 48 C-22 45.36 -22 42.72 -22 40 C-17.38 40 -12.76 40 -8 40 C-7.35284977 33.36980013 -7.35284977 33.36980013 -10 30 C-12.05003955 28.80767387 -12.05003955 28.80767387 -14 28 C-14 27.34 -14 26.68 -14 26 C-14.60328125 25.89945313 -15.2065625 25.79890625 -15.828125 25.6953125 C-19.07736352 24.65508866 -20.1816061 22.73021421 -22.01953125 19.96484375 C-24.07342643 15.84887054 -23.24504791 12.13613122 -22.3125 7.8125 C-20.70775529 4.37376135 -19.22619902 2.97971303 -16 1 C-10.80391503 -0.45007023 -5.35709535 -0.0952843 0 0 Z " fill="#171717" transform="translate(688,715)"/>
<path d="M0 0 C1.28583984 0.00966797 1.28583984 0.00966797 2.59765625 0.01953125 C4.9375 0.1875 4.9375 0.1875 7.9375 1.1875 C7.6075 4.1575 7.2775 7.1275 6.9375 10.1875 C2.9775 10.1875 -0.9825 10.1875 -5.0625 10.1875 C-5.0625 12.1675 -5.0625 14.1475 -5.0625 16.1875 C-3.14227297 17.96159808 -3.14227297 17.96159808 -1.0625 19.1875 C-1.0625 19.8475 -1.0625 20.5075 -1.0625 21.1875 C-0.11375 21.414375 0.835 21.64125 1.8125 21.875 C4.9375 23.1875 4.9375 23.1875 6.3125 25.8125 C6.621875 26.988125 6.621875 26.988125 6.9375 28.1875 C7.5975 28.1875 8.2575 28.1875 8.9375 28.1875 C10.16235812 30.63721624 10.10472808 32.32984461 10.125 35.0625 C10.13917969 35.92617188 10.15335938 36.78984375 10.16796875 37.6796875 C9.92609252 40.3116288 9.26733541 41.92730544 7.9375 44.1875 C7.2775 44.1875 6.6175 44.1875 5.9375 44.1875 C5.89625 44.80625 5.855 45.425 5.8125 46.0625 C4.9375 48.1875 4.9375 48.1875 2.5625 49.4375 C-3.23183979 50.63632892 -9.39758276 51.07580575 -15.0625 49.1875 C-14.7325 46.5475 -14.4025 43.9075 -14.0625 41.1875 C-10.1025 41.5175 -6.1425 41.8475 -2.0625 42.1875 C-2.0625 41.5275 -2.0625 40.8675 -2.0625 40.1875 C-1.0725 39.6925 -1.0725 39.6925 -0.0625 39.1875 C0.07228487 35.85695626 0.07228487 35.85695626 -1.0625 32.1875 C-2.92829902 30.62249569 -4.85267509 29.5405732 -6.98828125 28.375 C-10.945058 26.10972668 -13.62465318 23.50104045 -15.0625 19.1875 C-15.13052967 17.45954648 -15.14745645 15.72914635 -15.125 14 C-15.11597656 13.09894531 -15.10695313 12.19789063 -15.09765625 11.26953125 C-15.08605469 10.58246094 -15.07445312 9.89539063 -15.0625 9.1875 C-14.4025 9.1875 -13.7425 9.1875 -13.0625 9.1875 C-12.959375 8.548125 -12.85625 7.90875 -12.75 7.25 C-12.523125 6.569375 -12.29625 5.88875 -12.0625 5.1875 C-11.0725 4.8575 -10.0825 4.5275 -9.0625 4.1875 C-9.0625 3.5275 -9.0625 2.8675 -9.0625 2.1875 C-5.91659472 0.3408317 -3.63099948 -0.06024283 0 0 Z " fill="#0D0D0D" transform="translate(595.0625,713.8125)"/>
<path d="M0 0 C1.27230469 0.00902344 2.54460937 0.01804687 3.85546875 0.02734375 C5.31919922 0.04474609 5.31919922 0.04474609 6.8125 0.0625 C7.73142116 3.73818464 7.77154856 5.22630575 6.8125 9.0625 C3.1825 9.3925 -0.4475 9.7225 -4.1875 10.0625 C-4.1875 12.7025 -4.1875 15.3425 -4.1875 18.0625 C-3.630625 18.330625 -3.07375 18.59875 -2.5 18.875 C-1.736875 19.266875 -0.97375 19.65875 -0.1875 20.0625 C0.6375 20.475 1.4625 20.8875 2.3125 21.3125 C5.59093731 23.60740612 7.03999773 25.45184722 8.8125 29.0625 C9.6122685 33.95805264 9.45276861 38.49910483 7.25 43 C4.46914196 46.49389856 2.12711573 48.1751545 -2.1875 49.0625 C-6.7421086 49.42936057 -10.83118033 49.51460656 -15.1875 48.0625 C-15.1875 45.4225 -15.1875 42.7825 -15.1875 40.0625 C-10.8975 40.3925 -6.6075 40.7225 -2.1875 41.0625 C-1.2145073 35.84541847 -1.2145073 35.84541847 -1.8125 30.6875 C-3.65658957 28.50812141 -5.51992527 28.01520526 -8.1875 27.0625 C-10.5 25.625 -10.5 25.625 -12.1875 24.0625 C-12.1875 23.0725 -12.1875 22.0825 -12.1875 21.0625 C-12.8475 21.0625 -13.5075 21.0625 -14.1875 21.0625 C-15.98501401 15.66995798 -15.89272993 10.73742109 -13.6875 5.5 C-13.1925 4.695625 -12.6975 3.89125 -12.1875 3.0625 C-11.5275 3.0625 -10.8675 3.0625 -10.1875 3.0625 C-10.1875 2.4025 -10.1875 1.7425 -10.1875 1.0625 C-6.62704823 -0.12431726 -3.74941663 -0.03439832 0 0 Z " fill="#0E0E0E" transform="translate(428.1875,714.9375)"/>
<path d="M0 0 C0.66 0 1.32 0 2 0 C2.06058594 0.56847656 2.12117187 1.13695312 2.18359375 1.72265625 C2.35860391 3.3354422 2.54136149 4.94739993 2.73046875 6.55859375 C2.95317659 8.57587488 3.11036358 10.60027196 3.25 12.625 C4.18650474 16.83927132 5.97998027 19.91015322 9 23 C9.99 23.33 10.98 23.66 12 24 C12.33 24.66 12.66 25.32 13 26 C13.825 26.391875 14.65 26.78375 15.5 27.1875 C18 29 18 29 18.875 32.5625 C19 36 19 36 18 38 C12.98537403 38.93493027 9.02721527 39.13112344 4 38 C4 40.64 4 43.28 4 46 C4.66 46.33 5.32 46.66 6 47 C5.34 47 4.68 47 4 47 C4 47.66 4 48.32 4 49 C0.06329512 50.31223496 -2.12488144 49.24296256 -6 48 C-6 47.67 -6 47.34 -6 47 C-4.35 47 -2.7 47 -1 47 C-1 44.03 -1 41.06 -1 38 C-4.96 38 -8.92 38 -13 38 C-13.33 34.04 -13.66 30.08 -14 26 C-10.04 26 -6.08 26 -2 26 C-2 23.03 -2 20.06 -2 17 C-5.63 17 -9.26 17 -13 17 C-13 13.7 -13 10.4 -13 7 C-7.555 6.505 -7.555 6.505 -2 6 C-1.34 4.02 -0.68 2.04 0 0 Z " fill="#F8F8F8" transform="translate(662,717)"/>
<path d="M0 0 C1.17369141 -0.00386719 1.17369141 -0.00386719 2.37109375 -0.0078125 C4.5625 0.125 4.5625 0.125 7.5625 1.125 C7.2325 3.765 6.9025 6.405 6.5625 9.125 C2.9325 9.455 -0.6975 9.785 -4.4375 10.125 C-4.7675 11.445 -5.0975 12.765 -5.4375 14.125 C-5.788125 14.95 -6.13875 15.775 -6.5 16.625 C-8.34761402 23.52275903 -7.98254981 31.17227588 -6.4375 38.125 C-5.7775 38.125 -5.1175 38.125 -4.4375 38.125 C-4.4375 39.115 -4.4375 40.105 -4.4375 41.125 C-0.8075 41.455 2.8225 41.785 6.5625 42.125 C6.5625 44.765 6.5625 47.405 6.5625 50.125 C4.33441841 50.23353983 2.10480068 50.31083307 -0.125 50.375 C-1.36636719 50.42140625 -2.60773438 50.4678125 -3.88671875 50.515625 C-8.06302711 50.05618514 -9.51544307 49.07797817 -12.4375 46.125 C-13.984375 44.08984375 -13.984375 44.08984375 -15.1875 42.0625 C-15.79851562 41.05509766 -15.79851562 41.05509766 -16.421875 40.02734375 C-20.54826455 32.29829872 -19.07999616 21.2643906 -16.9375 13.0625 C-14.2904702 5.32136608 -8.36706781 -0.02747806 0 0 Z " fill="#171717" transform="translate(508.4375,713.875)"/>
<path d="M0 0 C3.3 0 6.6 0 10 0 C10 13.53 10 27.06 10 41 C13.96 41 17.92 41 22 41 C22 43.64 22 46.28 22 49 C14.74 49 7.48 49 0 49 C0 32.83 0 16.66 0 0 Z " fill="#101010" transform="translate(369,715)"/>
<path d="M0 0 C2.97 0 5.94 0 9 0 C9 13.53 9 27.06 9 41 C12.96 41 16.92 41 21 41 C21 43.64 21 46.28 21 49 C14.07 49 7.14 49 0 49 C0 32.83 0 16.66 0 0 Z " fill="#060606" transform="translate(521,715)"/>
<path d="M0 0 C2.97 0 5.94 0 9 0 C9 16.17 9 32.34 9 49 C6.03 49 3.06 49 0 49 C0 32.83 0 16.66 0 0 Z " fill="#070707" transform="translate(397,715)"/>
<path d="M0 0 C2.31 0 4.62 0 7 0 C7 15.51 7 31.02 7 47 C4.36 47 1.72 47 -1 47 C-2.8125 45 -2.8125 45 -4 42 C-4.28746094 41.33742188 -4.57492187 40.67484375 -4.87109375 39.9921875 C-7.15971652 34.47914955 -7.15971652 34.47914955 -6 31 C-5.34 30.01 -4.68 29.02 -4 28 C-3.01 28 -2.02 28 -1 28 C-0.67 18.76 -0.34 9.52 0 0 Z " fill="#050505" transform="translate(319,716)"/>
<path d="M0 0 C-0.33 2.64 -0.66 5.28 -1 8 C-1.71027344 8.06058594 -2.42054688 8.12117187 -3.15234375 8.18359375 C-4.07144531 8.26738281 -4.99054687 8.35117187 -5.9375 8.4375 C-6.85402344 8.51871094 -7.77054688 8.59992187 -8.71484375 8.68359375 C-10.96159732 8.76044976 -10.96159732 8.76044976 -12 10 C-12.29386153 13.72224599 -12.14809171 14.77786243 -10 18 C-12.475 17.01 -12.475 17.01 -15 16 C-15.33 17.98 -15.66 19.96 -16 22 C-15.34 22 -14.68 22 -14 22 C-12 25 -12 25 -12 28 C-15.36179774 26.55922954 -17.59156268 24.75249979 -20 22 C-20 21.34 -20 20.68 -20 20 C-20.66 20 -21.32 20 -22 20 C-24.61895048 15.22426677 -23.83119431 11.15565119 -23 6 C-22.34 6 -21.68 6 -21 6 C-20.9071875 5.37609375 -20.814375 4.7521875 -20.71875 4.109375 C-20 2 -20 2 -16.5 0.25 C-11.00413237 -1.57205341 -5.50340024 -1.83446675 0 0 Z " fill="#202020" transform="translate(632,716)"/>
<path d="M0 0 C35.31 0 70.62 0 107 0 C107 0.33 107 0.66 107 1 C109.64 1.33 112.28 1.66 115 2 C115 2.33 115 2.66 115 3 C76.72 3 38.44 3 -1 3 C-0.67 2.01 -0.34 1.02 0 0 Z " fill="#F4F4F4" transform="translate(333,594)"/>
<path d="M0 0 C4.29 0 8.58 0 13 0 C13 8.91 13 17.82 13 27 C10.03 27 7.06 27 4 27 C2.90412045 22.75448144 3.07134164 19.0407161 3.4375 14.6875 C3.53933594 13.43324219 3.64117187 12.17898438 3.74609375 10.88671875 C3.82988281 9.93410156 3.91367187 8.98148438 4 8 C2.68 8 1.36 8 0 8 C0 5.36 0 2.72 0 0 Z " fill="#0A0A0A" transform="translate(349,736)"/>
<path d="M0 0 C0.66 0 1.32 0 2 0 C3.33203125 1.42578125 3.33203125 1.42578125 4.8125 3.3125 C7.27084555 6.29505159 9.52625405 8.21350208 13 10 C14 11 14 11 14.1875 13.875 C14 17 14 17 12 20 C9.46875 20.328125 9.46875 20.328125 6.5 20.25 C5.03046875 20.22679687 5.03046875 20.22679687 3.53125 20.203125 C1 20 1 20 -1 19 C-1.33 19.99 -1.66 20.98 -2 22 C-2.33 21.01 -2.66 20.02 -3 19 C-4.65 20.65 -6.3 22.3 -8 24 C-8.33 23.34 -8.66 22.68 -9 22 C-8.34 21.67 -7.68 21.34 -7 21 C-6.38876146 17.71289494 -6.03941785 14.42286315 -5.66015625 11.1015625 C-4.97005553 7.85931414 -4.45883971 7.04478639 -2 5 C-0.80972016 2.40084462 -0.80972016 2.40084462 0 0 Z " fill="#EEEEEE" transform="translate(610,736)"/>
<path d="M0 0 C0.99 0.33 1.98 0.66 3 1 C3 1.99 3 2.98 3 4 C3.66 4 4.32 4 5 4 C5 4.66 5 5.32 5 6 C5.66 6 6.32 6 7 6 C7 6.99 7 7.98 7 9 C10.63 9.33 14.26 9.66 18 10 C18 12.64 18 15.28 18 18 C15.77191841 18.10853983 13.54230068 18.18583307 11.3125 18.25 C10.07113281 18.29640625 8.82976562 18.3428125 7.55078125 18.390625 C3.41739604 17.93590715 1.89913531 16.90975485 -1 14 C-2.4375 11.5 -2.4375 11.5 -3 9 C-2.125 6.6875 -2.125 6.6875 -1 5 C-0.01 5 0.98 5 2 5 C1.34 4.67 0.68 4.34 0 4 C0 2.68 0 1.36 0 0 Z " fill="#080808" transform="translate(497,746)"/>
<path d="M0 0 C0 2.64 0 5.28 0 8 C-1.15628906 8.07347656 -1.15628906 8.07347656 -2.3359375 8.1484375 C-3.33882812 8.22320313 -4.34171875 8.29796875 -5.375 8.375 C-6.37273438 8.44460938 -7.37046875 8.51421875 -8.3984375 8.5859375 C-11.15508879 8.76363964 -11.15508879 8.76363964 -13 11 C-13.69748583 12.31747324 -14.36959957 13.64914193 -15 15 C-15.66 13.68 -16.32 12.36 -17 11 C-17.66 11 -18.32 11 -19 11 C-19 12.32 -19 13.64 -19 15 C-19.66 15 -20.32 15 -21 15 C-21.77819033 5.93840598 -21.77819033 5.93840598 -18.875 2.4375 C-12.83508059 -0.5824597 -6.60272646 -0.1174398 0 0 Z " fill="#0E0E0E" transform="translate(688,715)"/>
<path d="M0 0 C0.66 0 1.32 0 2 0 C2.33 2.64 2.66 5.28 3 8 C3.66 8 4.32 8 5 8 C5.67528223 9.57967807 6.33989694 11.16391903 7 12.75 C7.37125 13.63171875 7.7425 14.5134375 8.125 15.421875 C9 18 9 18 9 22 C8.34 22 7.68 22 7 22 C6.67 22.66 6.34 23.32 6 24 C5.67 21.36 5.34 18.72 5 16 C4.34 16 3.68 16 3 16 C3.061875 17.2375 3.12375 18.475 3.1875 19.75 C3.39753022 23.95060434 2.8481846 24.20242053 0 28 C0 18.76 0 9.52 0 0 Z " fill="#DCDCDC" transform="translate(306,736)"/>
<path d="M0 0 C0.99 0.495 0.99 0.495 2 1 C2 2.32 2 3.64 2 5 C1.34 5 0.68 5 0 5 C0 6.65 0 8.3 0 10 C-0.33 10 -0.66 10 -1 10 C-1 7.69 -1 5.38 -1 3 C-29.71 3 -58.42 3 -88 3 C-88 2.67 -88 2.34 -88 2 C-86.91227798 1.98969254 -85.82455597 1.97938507 -84.70387268 1.96876526 C-74.47640569 1.8712064 -64.24900194 1.76848941 -54.02163792 1.66066074 C-48.76306363 1.60538625 -43.50448382 1.55195916 -38.24584961 1.50268555 C-33.17541936 1.45510858 -28.10505903 1.40276846 -23.03471184 1.34705925 C-21.09575061 1.32660538 -19.15677018 1.30789743 -17.21777534 1.29092598 C-14.51173046 1.26694883 -11.80581901 1.23688555 -9.09985352 1.20532227 C-8.28993454 1.1995668 -7.48001556 1.19381134 -6.64555359 1.18788147 C-3.02335774 1.47650331 -3.02335774 1.47650331 0 0 Z " fill="#1C1C1C" transform="translate(541,562)"/>
<path d="M0 0 C0.33 0.66 0.66 1.32 1 2 C1.639375 2.12375 2.27875 2.2475 2.9375 2.375 C5 3 5 3 6.25 4.625 C7.25295915 7.8010373 7.12721966 10.69228878 7 14 C0.84765625 14.09765625 0.84765625 14.09765625 -1 14 C-2.57027317 12.42972683 -2.16974386 10.85730053 -2.1875 8.6875 C-2.20167969 7.90761719 -2.21585938 7.12773438 -2.23046875 6.32421875 C-1.97984413 3.7967332 -1.26373772 2.18281969 0 0 Z " fill="#060606" transform="translate(569,750)"/>
<path d="M0 0 C0.87527344 -0.00257813 1.75054688 -0.00515625 2.65234375 -0.0078125 C5.0625 0.125 5.0625 0.125 8.0625 1.125 C7.7325 4.095 7.4025 7.065 7.0625 10.125 C3.7625 9.795 0.4625 9.465 -2.9375 9.125 C-2.6075 7.805 -2.2775 6.485 -1.9375 5.125 C-2.2675 4.135 -2.5975 3.145 -2.9375 2.125 C-4.95258358 1.39176204 -4.95258358 1.39176204 -6.9375 1.125 C-4.46371876 -0.11189062 -2.75834683 -0.00810087 0 0 Z " fill="#080808" transform="translate(594.9375,713.875)"/>
<path d="M0 0 C0.33 0 0.66 0 1 0 C1 16.17 1 32.34 1 49 C0.67 49 0.34 49 0 49 C-1.14412321 38.33543547 -0.93651212 27.88467278 -0.5625 17.1875 C-0.50912362 15.51239013 -0.45638509 13.8372598 -0.40429688 12.16210938 C-0.276866 8.10780014 -0.14086785 4.05386368 0 0 Z M-5 29 C-4.67 29 -4.34 29 -4 29 C-3.8046875 31.05078125 -3.609375 33.1015625 -3.4140625 35.15234375 C-3.27742187 35.76207031 -3.14078125 36.37179687 -3 37 C-2.34 37.33 -1.68 37.66 -1 38 C-1.66 40.31 -2.32 42.62 -3 45 C-3.99 45 -4.98 45 -6 45 C-6.66 45.66 -7.32 46.32 -8 47 C-8.99 46.67 -9.98 46.34 -11 46 C-10.01 45.67 -9.02 45.34 -8 45 C-5.77891226 41.76657976 -5.62584269 38.59625455 -5.375 34.75 C-5.30023437 33.67234375 -5.22546875 32.5946875 -5.1484375 31.484375 C-5.09945312 30.66453125 -5.05046875 29.8446875 -5 29 Z " fill="#D2D2D2" transform="translate(638,715)"/>
<path d="M0 0 C3.3 0 6.6 0 10 0 C10.33 2.31 10.66 4.62 11 7 C9 5 9 5 7 2 C6.01 2.495 6.01 2.495 5 3 C4.43941523 4.73433657 4.43941523 4.73433657 4 7 C3.33847444 9.3347961 2.67258667 11.66836622 2 14 C0.35 14 -1.3 14 -3 14 C-3.33 13.01 -3.66 12.02 -4 11 C-3.01 11 -2.02 11 -1 11 C-0.67 7.37 -0.34 3.74 0 0 Z " fill="#E3E3E3" transform="translate(556,753)"/>
<path d="M0 0 C2.97 0 5.94 0 9 0 C8.67 2.64 8.34 5.28 8 8 C4.04 8 0.08 8 -4 8 C-2.68 5.36 -1.36 2.72 0 0 Z " fill="#090909" transform="translate(352,715)"/>
<path d="M0 0 C1.27230469 0.00902344 2.54460937 0.01804687 3.85546875 0.02734375 C5.31919922 0.04474609 5.31919922 0.04474609 6.8125 0.0625 C7.73142116 3.73818464 7.77154856 5.22630575 6.8125 9.0625 C3.1825 9.0625 -0.4475 9.0625 -4.1875 9.0625 C-4.1875 8.7325 -4.1875 8.4025 -4.1875 8.0625 C-0.8875 8.0625 2.4125 8.0625 5.8125 8.0625 C5.1525 6.7425 4.4925 5.4225 3.8125 4.0625 C1.96233084 3.36456307 1.96233084 3.36456307 -0.125 3.3125 C-1.15947266 3.22742188 -1.15947266 3.22742188 -2.21484375 3.140625 C-7.16868359 2.94443332 -9.13894383 4.18352672 -13.1875 7.0625 C-12.8575 5.7425 -12.5275 4.4225 -12.1875 3.0625 C-11.5275 3.0625 -10.8675 3.0625 -10.1875 3.0625 C-10.1875 2.4025 -10.1875 1.7425 -10.1875 1.0625 C-6.62704823 -0.12431726 -3.74941663 -0.03439832 0 0 Z " fill="#333333" transform="translate(428.1875,714.9375)"/>
<path d="M0 0 C0.9991932 3.10860106 0.83036989 4.88611292 0 8 C0.33 8.66 0.66 9.32 1 10 C1.99 9.34 2.98 8.68 4 8 C4.99 8 5.98 8 7 8 C7 9.98 7 11.96 7 14 C3.7 14 0.4 14 -3 14 C-2.14285714 4.42857143 -2.14285714 4.42857143 0 0 Z " fill="#292929" transform="translate(548,750)"/>
<path d="M0 0 C0.33 0 0.66 0 1 0 C1.66 5.61 2.32 11.22 3 17 C1.02 17 -0.96 17 -3 17 C-2.69188262 14.54104382 -2.37871012 12.08291693 -2.0625 9.625 C-1.97548828 8.92632813 -1.88847656 8.22765625 -1.79882812 7.5078125 C-1.11328125 2.2265625 -1.11328125 2.2265625 0 0 Z " fill="#E8E8E8" transform="translate(561,728)"/>
<path d="M0 0 C2.97 0 5.94 0 9 0 C9 2.64 9 5.28 9 8 C6.70858714 8.05384521 4.41681812 8.09272087 2.125 8.125 C0.21074219 8.15980469 0.21074219 8.15980469 -1.7421875 8.1953125 C-5 8 -5 8 -7 6 C-5.35 6 -3.7 6 -2 6 C-2 5.67 -2 5.34 -2 5 C0.64 5 3.28 5 6 5 C6 4.34 6 3.68 6 3 C4.35 3.33 2.7 3.66 1 4 C1.66 3.34 2.32 2.68 3 2 C2.01 1.34 1.02 0.68 0 0 Z " fill="#222222" transform="translate(506,756)"/>
<path d="M0 0 C3.47402245 4.22924472 4.14184853 7.35429982 4.0625 12.75 C4.05347656 13.54921875 4.04445313 14.3484375 4.03515625 15.171875 C4.01775391 16.07679688 4.01775391 16.07679688 4 17 C3.01 16.67 2.02 16.34 1 16 C1 14.68 1 13.36 1 12 C-0.32 13.32 -1.64 14.64 -3 16 C-2.5359375 14.824375 -2.5359375 14.824375 -2.0625 13.625 C-0.73664193 9.10148422 -0.35188915 4.68568186 0 0 Z " fill="#C5C5C5" transform="translate(437,744)"/>
<path d="M0 0 C2.43818936 3.65728405 2.6716692 6.93287895 3.125 11.1875 C3.21136719 11.93708984 3.29773438 12.68667969 3.38671875 13.45898438 C3.59838382 15.30517412 3.80015464 17.15249344 4 19 C2.68 19 1.36 19 0 19 C-0.38063221 16.6739143 -0.71269945 14.33944736 -1 12 C-0.67 11.67 -0.34 11.34 0 11 C0.07226502 9.14712498 0.0838122 7.29166122 0.0625 5.4375 C0.05347656 4.42558594 0.04445313 3.41367187 0.03515625 2.37109375 C0.02355469 1.58863281 0.01195312 0.80617188 0 0 Z " fill="#2F2F2F" transform="translate(644,645)"/>
<path d="M0 0 C5 1 5 1 6.3125 2.8125 C7 5 7 5 7 9 C6.34 9 5.68 9 5 9 C4.67 9.66 4.34 10.32 4 11 C3.67 8.36 3.34 5.72 3 3 C2.34 3 1.68 3 1 3 C1 5.64 1 8.28 1 11 C0.67 11 0.34 11 0 11 C0 7.37 0 3.74 0 0 Z " fill="#E5E5E5" transform="translate(308,749)"/>
<path d="M0 0 C0.7940625 0.01417969 1.588125 0.02835938 2.40625 0.04296875 C3.59734375 0.05263672 3.59734375 0.05263672 4.8125 0.0625 C6.90625 0.23046875 6.90625 0.23046875 8.90625 1.23046875 C8.57625 3.54046875 8.24625 5.85046875 7.90625 8.23046875 C7.24625 8.23046875 6.58625 8.23046875 5.90625 8.23046875 C5.24625 6.58046875 4.58625 4.93046875 3.90625 3.23046875 C2.483125 3.53984375 2.483125 3.53984375 1.03125 3.85546875 C0 3.97921875 -1.03125 4.10296875 -2.09375 4.23046875 C-2.75375 3.57046875 -3.41375 2.91046875 -4.09375 2.23046875 C-2.09375 0.23046875 -2.09375 0.23046875 0 0 Z " fill="#0A0A0A" transform="translate(622.09375,714.76953125)"/>
<path d="M0 0 C0 3.20395416 -0.74335022 5.09399739 -2 8 C-3.32 8 -4.64 8 -6 8 C-7.125 5.6875 -7.125 5.6875 -8 3 C-6 0 -6 0 -4 -0.75 C-2 -1 -2 -1 0 0 Z " fill="#060606" transform="translate(594,716)"/>
<path d="M0 0 C1.65 0 3.3 0 5 0 C5 0.99 5 1.98 5 3 C5.66 3 6.32 3 7 3 C7 3.66 7 4.32 7 5 C6.34 5 5.68 5 5 5 C4.67 6.32 4.34 7.64 4 9 C3.01 8.67 2.02 8.34 1 8 C0.67 5.36 0.34 2.72 0 0 Z " fill="#060606" transform="translate(555,720)"/>
<path d="M0 0 C0.33 0.99 0.66 1.98 1 3 C1.66 3 2.32 3 3 3 C2.855625 3.969375 2.71125 4.93875 2.5625 5.9375 C1.93952558 10.28052169 1.46492141 14.63765234 1 19 C0.67 19 0.34 19 0 19 C-0.82481968 15.39959663 -1.13516938 12.06648597 -1.125 8.375 C-1.12757813 7.43398438 -1.13015625 6.49296875 -1.1328125 5.5234375 C-1 3 -1 3 0 0 Z " fill="#2F2F2F" transform="translate(524,437)"/>
<path d="M0 0 C3.96 0 7.92 0 12 0 C12 2.64 12 5.28 12 8 C9.69 8 7.38 8 5 8 C5.99 7.67 6.98 7.34 8 7 C8 5.68 8 4.36 8 3 C7.01 2.67 6.02 2.34 5 2 C6.2065625 2.0309375 6.2065625 2.0309375 7.4375 2.0625 C9.93354885 2.29633621 9.93354885 2.29633621 11 1 C7.37 1 3.74 1 0 1 C0 0.67 0 0.34 0 0 Z " fill="#171717" transform="translate(379,756)"/>
<path d="M0 0 C2.50037734 2.17424117 3.43628586 3.73045798 4 7 C3.01 7.495 3.01 7.495 2 8 C1.67 8.99 1.34 9.98 1 11 C-0.32 10.67 -1.64 10.34 -3 10 C-2.69201674 8.51988629 -2.378482 7.04092675 -2.0625 5.5625 C-1.88847656 4.73878906 -1.71445312 3.91507813 -1.53515625 3.06640625 C-1 1 -1 1 0 0 Z " fill="#0E0E0E" transform="translate(550,749)"/>
<path d="M0 0 C0.66 0 1.32 0 2 0 C0.7874262 3.72433382 -0.50859979 7.37802806 -2 11 C-2.66 10.34 -3.32 9.68 -4 9 C-4.33 11.64 -4.66 14.28 -5 17 C-5.33 17 -5.66 17 -6 17 C-6 13.7 -6 10.4 -6 7 C-5.34 7 -4.68 7 -4 7 C-3.896875 6.360625 -3.79375 5.72125 -3.6875 5.0625 C-3.460625 4.381875 -3.23375 3.70125 -3 3 C-2.01 2.67 -1.02 2.34 0 2 C0 1.34 0 0.68 0 0 Z " fill="#343434" transform="translate(586,716)"/>
<path d="M0 0 C0.33 0 0.66 0 1 0 C1 2.64 1 5.28 1 8 C1.66 8.33 2.32 8.66 3 9 C2.34 9 1.68 9 1 9 C1 9.66 1 10.32 1 11 C-2.93670488 12.31223496 -5.12488144 11.24296256 -9 10 C-9 9.67 -9 9.34 -9 9 C-7.35 9 -5.7 9 -4 9 C-4 6.36 -4 3.72 -4 1 C-3.67 1 -3.34 1 -3 1 C-2.67 3.31 -2.34 5.62 -2 8 C-1.34 5.36 -0.68 2.72 0 0 Z " fill="#C7C7C7" transform="translate(665,755)"/>
<path d="M0 0 C0.33 0 0.66 0 1 0 C1.29359745 3.0534135 1.4451258 5.95743422 1 9 C-1.5 11.5625 -1.5 11.5625 -4 13 C-3.67 9.04 -3.34 5.08 -3 1 C-2.01 1.33 -1.02 1.66 0 2 C0 1.34 0 0.68 0 0 Z " fill="#F7F7F7" transform="translate(296,715)"/>
<path d="M0 0 C0.99 0.33 1.98 0.66 3 1 C3 3.64 3 6.28 3 9 C2.34 9 1.68 9 1 9 C0.67 9.66 0.34 10.32 0 11 C-1.62651522 7.74696956 -1.11453156 4.60774398 -1 1 C-0.67 0.67 -0.34 0.34 0 0 Z " fill="#010101" transform="translate(491,735)"/>
<path d="M0 0 C0 0.33 0 0.66 0 1 C-3.3 1 -6.6 1 -10 1 C-10.99 3.97 -11.98 6.94 -13 10 C-15 9 -15 9 -16 6 C-12.0874748 -1.12638519 -7.62289627 -0.72090438 0 0 Z " fill="#B9B9B9" transform="translate(360,723)"/>
<path d="M0 0 C0.99 0.33 1.98 0.66 3 1 C2.6875 2.9375 2.6875 2.9375 2 5 C1.01 5.33 0.02 5.66 -1 6 C-1 7.32 -1 8.64 -1 10 C-1.66 10 -2.32 10 -3 10 C-3.29296875 3.9453125 -3.29296875 3.9453125 -3 2 C-2.01 1.34 -1.02 0.68 0 0 Z " fill="#060606" transform="translate(670,720)"/>
<path d="M0 0 C0.99 0.33 1.98 0.66 3 1 C2.34 4.63 1.68 8.26 1 12 C0.34 12 -0.32 12 -1 12 C-1.33 8.37 -1.66 4.74 -2 1 C-1.34 0.67 -0.68 0.34 0 0 Z " fill="#EFEFEF" transform="translate(544,752)"/>
<path d="M0 0 C2 2 2 2 2.265625 4.27734375 C2.26046875 5.15519531 2.2553125 6.03304687 2.25 6.9375 C2.25515625 7.81277344 2.2603125 8.68804688 2.265625 9.58984375 C2 12 2 12 0 15 C-0.33 14.34 -0.66 13.68 -1 13 C-1.99 13.495 -1.99 13.495 -3 14 C-2.67 10.7 -2.34 7.4 -2 4 C-1.67 4 -1.34 4 -1 4 C-0.67 5.65 -0.34 7.3 0 9 C0 6.03 0 3.06 0 0 Z " fill="#2B2B2B" transform="translate(603,742)"/>
<path d="M0 0 C3.63 0 7.26 0 11 0 C10.67 1.32 10.34 2.64 10 4 C9.34 3.67 8.68 3.34 8 3 C6.45976004 2.93049459 4.91665012 2.91547643 3.375 2.9375 C2.55773437 2.94652344 1.74046875 2.95554687 0.8984375 2.96484375 C0.27195312 2.97644531 -0.35453125 2.98804688 -1 3 C-0.67 2.01 -0.34 1.02 0 0 Z " fill="#F2F2F2" transform="translate(424,724)"/>
<path d="M0 0 C0.94875 0.20625 1.8975 0.4125 2.875 0.625 C5.87686999 0.72085803 8.87251587 0.68387224 11.875 0.625 C11.875 0.955 11.875 1.285 11.875 1.625 C10.53695312 1.78935547 10.53695312 1.78935547 9.171875 1.95703125 C8.00140625 2.11558594 6.8309375 2.27414062 5.625 2.4375 C3.88476562 2.66373047 3.88476562 2.66373047 2.109375 2.89453125 C-1.10894666 3.62137443 -2.70831655 4.44161025 -5.125 6.625 C-5.3125 4.25 -5.3125 4.25 -5.125 1.625 C-2.125 -0.375 -2.125 -0.375 0 0 Z " fill="#BEBEBE" transform="translate(673.125,713.375)"/>
<path d="M0 0 C0.87527344 -0.00257813 1.75054688 -0.00515625 2.65234375 -0.0078125 C5.0625 0.125 5.0625 0.125 8.0625 1.125 C8.0625 2.775 8.0625 4.425 8.0625 6.125 C7.7325 4.805 7.4025 3.485 7.0625 2.125 C6.42441406 2.20878906 5.78632812 2.29257812 5.12890625 2.37890625 C4.30261719 2.48074219 3.47632813 2.58257813 2.625 2.6875 C1.80128906 2.79191406 0.97757813 2.89632812 0.12890625 3.00390625 C-0.89396484 3.06384766 -0.89396484 3.06384766 -1.9375 3.125 C-2.2675 2.795 -2.5975 2.465 -2.9375 2.125 C-4.26344105 1.76337971 -5.59688457 1.42771961 -6.9375 1.125 C-4.46371876 -0.11189062 -2.75834683 -0.00810087 0 0 Z " fill="#4E4E4E" transform="translate(594.9375,713.875)"/>
<path d="M0 0 C-0.33 1.98 -0.66 3.96 -1 6 C-1.66 6 -2.32 6 -3 6 C-2.67 7.98 -2.34 9.96 -2 12 C-2.99 12 -3.98 12 -5 12 C-5.125 4.375 -5.125 4.375 -4 1 C-2 0 -2 0 0 0 Z " fill="#DEDEDE" transform="translate(479,420)"/>
<path d="M0 0 C2.03219488 3.40351338 2.36891039 6.3232927 2.625 10.25 C2.69976563 11.32765625 2.77453125 12.4053125 2.8515625 13.515625 C2.92503906 14.74539062 2.92503906 14.74539062 3 16 C-1.63029141 11.57384969 -1.63029141 11.57384969 -2 8 C-1.67 7.67 -1.34 7.34 -1 7 C-0.63239269 4.67182036 -0.29758419 2.3381615 0 0 Z " fill="#353535" transform="translate(557,196)"/>
<path d="M0 0 C1.79275866 3.11910856 2.34290718 5.67682428 2.625 9.25 C2.69976563 10.14203125 2.77453125 11.0340625 2.8515625 11.953125 C2.90054688 12.62859375 2.94953125 13.3040625 3 14 C-0.90625 11.3984375 -0.90625 11.3984375 -1.75 7.8125 C-1.8325 6.884375 -1.915 5.95625 -2 5 C-1.67 5 -1.34 5 -1 5 C-0.67 3.35 -0.34 1.7 0 0 Z " fill="#3D3D3D" transform="translate(637,608)"/>
<path d="M0 0 C2.5 1.8125 2.5 1.8125 5 4 C5 4.99 5 5.98 5 7 C4.34 7 3.68 7 3 7 C3 9.64 3 12.28 3 15 C2.67 15 2.34 15 2 15 C1.66223316 13.2508503 1.32996329 11.50063855 1 9.75 C0.814375 8.77546875 0.62875 7.8009375 0.4375 6.796875 C0 4 0 4 0 0 Z " fill="#B7B7B7" transform="translate(627,556)"/>
<path d="M0 0 C1.33333333 0 2.66666667 0 4 0 C3.855625 0.969375 3.71125 1.93875 3.5625 2.9375 C2.93952558 7.28052169 2.46492141 11.63765234 2 16 C1.67 16 1.34 16 1 16 C0.67 10.72 0.34 5.44 0 0 Z " fill="#212121" transform="translate(507,336)"/>
<path d="M0 0 C-0.99 0.66 -1.98 1.32 -3 2 C-2.34 2 -1.68 2 -1 2 C-1 2.66 -1 3.32 -1 4 C-7.0546875 4.1953125 -7.0546875 4.1953125 -9 4 C-9.66 3.34 -10.32 2.68 -11 2 C-7.36576791 -0.32590854 -4.22911669 -0.16265833 0 0 Z " fill="#000000" transform="translate(513,757)"/>
<path d="M0 0 C2.1519437 3.22791555 2.20086443 4.28400809 2 8 C2.66 8 3.32 8 4 8 C4.33 9.65 4.66 11.3 5 13 C3.35 12.67 1.7 12.34 0 12 C0 8.04 0 4.08 0 0 Z " fill="#C6C6C6" transform="translate(307,736)"/>
<path d="M0 0 C1.32229189 2.64458379 1.09677194 4.67761301 1.0625 7.625 C1.05347656 8.62789062 1.04445313 9.63078125 1.03515625 10.6640625 C1.02355469 11.43492187 1.01195312 12.20578125 1 13 C-0.65 12.01 -2.3 11.02 -4 10 C-3.67 8.68 -3.34 7.36 -3 6 C-2.34 6 -1.68 6 -1 6 C-1.020625 5.195625 -1.04125 4.39125 -1.0625 3.5625 C-1 1 -1 1 0 0 Z " fill="#D9D9D9" transform="translate(413,722)"/>
<path d="M0 0 C0.33 0 0.66 0 1 0 C1 1.65 1 3.3 1 5 C1.66 5 2.32 5 3 5 C3 5.99 3 6.98 3 8 C2.01 8.495 2.01 8.495 1 9 C1.33 11.31 1.66 13.62 2 16 C1.01 15.67 0.02 15.34 -1 15 C-0.67 10.05 -0.34 5.1 0 0 Z " fill="#D4D4D4" transform="translate(485,360)"/>
<path d="M0 0 C3.63 0.33 7.26 0.66 11 1 C11 1.33 11 1.66 11 2 C6.545 2.495 6.545 2.495 2 3 C1.67 3.99 1.34 4.98 1 6 C0.67 6 0.34 6 0 6 C0 4.02 0 2.04 0 0 Z " fill="#181818" transform="translate(413,755)"/>
<path d="M0 0 C0.33 0 0.66 0 1 0 C2.72107623 9.73004484 2.72107623 9.73004484 0.953125 12.84375 C-0.4375 14.1875 -0.4375 14.1875 -3 16 C-3.33 15.34 -3.66 14.68 -4 14 C-3.34 13.67 -2.68 13.34 -2 13 C-1.30662208 9.9600352 -1.30662208 9.9600352 -0.875 6.4375 C-0.70742188 5.23996094 -0.53984375 4.04242187 -0.3671875 2.80859375 C-0.24601563 1.88175781 -0.12484375 0.95492187 0 0 Z " fill="#C9C9C9" transform="translate(605,744)"/>
<path d="M0 0 C-0.99 0.33 -1.98 0.66 -3 1 C-3 1.99 -3 2.98 -3 4 C-4.65 3.67 -6.3 3.34 -8 3 C-8.33 3.99 -8.66 4.98 -9 6 C-9 4.68 -9 3.36 -9 2 C-5.5647952 -0.29013653 -4.014669 -0.17842973 0 0 Z " fill="#EBEBEB" transform="translate(631,724)"/>
<path d="M0 0 C0.66 0 1.32 0 2 0 C1.53199289 4.05606165 1.12046792 7.46588679 -1 11 C-1.33 8.36 -1.66 5.72 -2 3 C-1.34 3 -0.68 3 0 3 C0 2.01 0 1.02 0 0 Z " fill="#EAEAEA" transform="translate(637,592)"/>
<path d="M0 0 C2.60018816 3.90028225 2.15085514 7.47434569 2 12 C1.67 11.01 1.34 10.02 1 9 C0.01 8.67 -0.98 8.34 -2 8 C-1.67 7.01 -1.34 6.02 -1 5 C-0.65179959 3.33637583 -0.31595508 1.67004829 0 0 Z " fill="#BEBEBE" transform="translate(541,576)"/>
<path d="M0 0 C0.33 0 0.66 0 1 0 C1.33 3.63 1.66 7.26 2 11 C0.35 11 -1.3 11 -3 11 C-3 10.01 -3 9.02 -3 8 C-2.01 8 -1.02 8 0 8 C0 5.36 0 2.72 0 0 Z " fill="#D1D1D1" transform="translate(291,756)"/>
<path d="M0 0 C-0.33 2.31 -0.66 4.62 -1 7 C-2.32 7 -3.64 7 -5 7 C-4.53479806 4.30182875 -3.4249099 0 0 0 Z " fill="#1C1C1C" transform="translate(687,755)"/>
<path d="M0 0 C3.63 0.66 7.26 1.32 11 2 C11 2.33 11 2.66 11 3 C4.375 5.125 4.375 5.125 1 4 C0.67 2.68 0.34 1.36 0 0 Z " fill="#050505" transform="translate(610,755)"/>
<path d="M0 0 C0.33 0 0.66 0 1 0 C1.33 3.96 1.66 7.92 2 12 C1.67 11.34 1.34 10.68 1 10 C0.01 9.67 -0.98 9.34 -2 9 C-1.855625 8.443125 -1.71125 7.88625 -1.5625 7.3125 C-0.97230872 4.88615805 -0.476571 2.45093655 0 0 Z " fill="#CACACA" transform="translate(509,355)"/>
<path d="M0 0 C0.99 1.32 1.98 2.64 3 4 C1.74458443 6.51083114 0.49936512 6.87125446 -2 8 C-1.125 1.125 -1.125 1.125 0 0 Z " fill="#010101" transform="translate(550,749)"/>
<path d="M0 0 C3.63 0 7.26 0 11 0 C11 0.33 11 0.66 11 1 C8.36 1.33 5.72 1.66 3 2 C2.34 3.65 1.68 5.3 1 7 C0.67 7 0.34 7 0 7 C0 4.69 0 2.38 0 0 Z " fill="#2A2A2A" transform="translate(349,736)"/>
<path d="M0 0 C0.66 0 1.32 0 2 0 C2 0.66 2 1.32 2 2 C2.66 2 3.32 2 4 2 C4 2.99 4 3.98 4 5 C3.34 5 2.68 5 2 5 C2 6.65 2 8.3 2 10 C1.67 10 1.34 10 1 10 C0.67 6.7 0.34 3.4 0 0 Z " fill="#232323" transform="translate(504,318)"/>
<path d="M0 0 C3.96 0 7.92 0 12 0 C12 0.33 12 0.66 12 1 C10.7625 1.144375 9.525 1.28875 8.25 1.4375 C5.43495501 1.78688502 2.7298503 2.20379366 0 3 C0 2.01 0 1.02 0 0 Z " fill="#D2D2D2" transform="translate(344,764)"/>
<path d="M0 0 C0.99 0.33 1.98 0.66 3 1 C3.33 3.31 3.66 5.62 4 8 C3.01 8.495 3.01 8.495 2 9 C1.34 7.35 0.68 5.7 0 4 C0.66 4 1.32 4 2 4 C1.34 2.68 0.68 1.36 0 0 Z " fill="#ADADAD" transform="translate(592,745)"/>
<path d="M0 0 C1.06671952 3.20015856 0.94845472 4.88544294 0.5625 8.1875 C0.46066406 9.08855469 0.35882813 9.98960937 0.25390625 10.91796875 C0.17011719 11.60503906 0.08632813 12.29210937 0 13 C-0.33 13 -0.66 13 -1 13 C-1.22151549 11.20991533 -1.42682213 9.41781838 -1.625 7.625 C-1.74101562 6.62726562 -1.85703125 5.62953125 -1.9765625 4.6015625 C-1.98429687 3.74304688 -1.99203125 2.88453125 -2 2 C-1.34 1.34 -0.68 0.68 0 0 Z " fill="#010101" transform="translate(499,730)"/>
<path d="M0 0 C0.66 0.33 1.32 0.66 2 1 C-1.465 3.97 -1.465 3.97 -5 7 C-5.33 6.34 -5.66 5.68 -6 5 C-5.67 4.34 -5.34 3.68 -5 3 C-4.34 3 -3.68 3 -3 3 C-3 2.34 -3 1.68 -3 1 C-2.01 0.67 -1.02 0.34 0 0 Z " fill="#424242" transform="translate(421,715)"/>
<path d="M0 0 C0.66 0.33 1.32 0.66 2 1 C2 2.32 2 3.64 2 5 C1.34 5 0.68 5 0 5 C0 6.65 0 8.3 0 10 C-0.33 10 -0.66 10 -1 10 C-1.9765625 3.9453125 -1.9765625 3.9453125 -2 2 C-1.34 1.34 -0.68 0.68 0 0 Z " fill="#161616" transform="translate(541,562)"/>
<path d="M0 0 C1.32 0 2.64 0 4 0 C4 0.99 4 1.98 4 3 C3.34 3 2.68 3 2 3 C2 4.65 2 6.3 2 8 C-0.1519437 4.77208445 -0.20086443 3.71599191 0 0 Z " fill="#C2C2C2" transform="translate(617,504)"/>
<path d="M0 0 C0.66 0 1.32 0 2 0 C1.34 2.97 0.68 5.94 0 9 C-0.99 8.01 -1.98 7.02 -3 6 C-3 5.34 -3 4.68 -3 4 C-2.34 3.67 -1.68 3.34 -1 3 C-0.67 2.01 -0.34 1.02 0 0 Z " fill="#484848" transform="translate(560,725)"/>
<path d="M0 0 C2 3 2 3 2 6 C1.34 6 0.68 6 0 6 C0 7.65 0 9.3 0 11 C-0.33 11 -0.66 11 -1 11 C-1.125 3.375 -1.125 3.375 0 0 Z " fill="#E0E0E0" transform="translate(605,429)"/>
</svg>
